<?xml version="1.0" encoding="UTF-8" standalone="no"?>
<!-- Created with Inkscape (http://www.inkscape.org/) -->

<svg
   xmlns:dc="http://purl.org/dc/elements/1.1/"
   xmlns:cc="http://creativecommons.org/ns#"
   xmlns:rdf="http://www.w3.org/1999/02/22-rdf-syntax-ns#"
   xmlns:svg="http://www.w3.org/2000/svg"
   xmlns="http://www.w3.org/2000/svg"
   version="1.1"
   width="400"
   height="400"
   id="svg2985">
  <metadata
     id="metadata2991">
    <rdf:RDF>
      <cc:Work
         rdf:about="">
        <dc:format>image/svg+xml</dc:format>
        <dc:type
           rdf:resource="http://purl.org/dc/dcmitype/StillImage" />
        <dc:title></dc:title>
      </cc:Work>
    </rdf:RDF>
  </metadata>
  <defs
     id="defs2989" />
  <g
     id="layer2"
     style="display:inline">
    <path
       d="m 28.5625,71.5 0,261.125 100.6875,0.4375 c 43.77101,-3.95117 81.14093,-18.60628 83.5625,-70.875 0.2493,-45.81345 -26.21126,-62.36353 -53.5,-70.78125 27.56385,-4.09088 42.91251,-25.29983 42.375,-55.59375 C 201.6534,92.965356 172.21611,75.617021 130.09375,71.625 z m 89.03125,28.5 c 43.70094,0.81224 49.15046,22.27423 49.5625,40.25 -0.27599,27.27294 -18.41717,37.93493 -45.34375,38.78125 l -58.6875,-0.21875 0,-78.59375 z m 3.375,108.0625 c 47.9214,0.97108 54.76036,24.73698 55.09375,49.34375 -1.07775,40.41509 -29.02609,45.47559 -55.28125,46.84375 l -57.65625,-0.21875 0,-95.78125 z"
       id="path2997"
       style="fill:#000000;stroke:#000000;stroke-width:1px;stroke-linecap:butt;stroke-linejoin:miter;stroke-opacity:1" />
    <path
       d="m 270.34375,71.625 0,261.4375 c 50.60646,-8.91916 107.04045,-28.23845 107.625,-91.53125 -0.41432,-14.82975 -8.43853,-42.00143 -39,-42.375 -13.27971,-0.23198 -26.02576,-0.51662 -59.46875,41.53125 l 0,-169.0625 z m 55.9375,147.03125 c 22.85685,0.34831 25.99037,14.73802 27.11811,27.54502 1.0193,49.22054 -36.67489,64.41642 -73.6875,75.1875 L 279.5,258.46875 c 13.10599,-19.55622 31.24047,-40.24672 46.78125,-39.8125 z"
       id="path3018"
       style="fill:#000000;stroke:#000000;stroke-width:1px;stroke-linecap:butt;stroke-linejoin:miter;stroke-opacity:1" />
    <path
       d="m 280.11433,289.8254 0,-31.15032 2.05198,-3.0014 c 11.71056,-17.12889 20.85745,-26.68098 30.66513,-32.02357 4.87864,-2.65756 11.61406,-4.57762 14.91951,-4.2531 10.0503,0.98674 16.67712,3.90144 20.2596,8.91087 2.3744,3.32015 3.41576,6.80246 4.14986,13.87712 1.2928,12.45902 -0.71268,25.13086 -5.61947,35.50718 -4.13526,8.74477 -11.0266,16.76185 -19.88932,23.13837 -10.40248,7.48436 -24.54728,13.6551 -45.425,19.81689 l -1.11229,0.32828 0,-31.15032 z"
       id="path3023"
       style="fill:none;stroke:none" />
    <path
       d="m 280.11433,289.8254 0,-31.15032 2.05198,-3.0014 c 11.71056,-17.12889 20.85745,-26.68098 30.66513,-32.02357 4.87864,-2.65756 11.61406,-4.57762 14.91951,-4.2531 10.0503,0.98674 16.67712,3.90144 20.2596,8.91087 2.3744,3.32015 3.41576,6.80246 4.14986,13.87712 1.2928,12.45902 -0.71268,25.13086 -5.61947,35.50718 -4.13526,8.74477 -11.0266,16.76185 -19.88932,23.13837 -10.40248,7.48436 -24.54728,13.6551 -45.425,19.81689 l -1.11229,0.32828 0,-31.15032 z"
       id="path3025"
       style="fill:none;stroke:none" />
  </g>
</svg>
